<?xml version="1.0" encoding="UTF-8"?>
<!DOCTYPE svg PUBLIC "-//W3C//DTD SVG 1.1//EN" "http://www.w3.org/Graphics/SVG/1.1/DTD/svg11.dtd">
<svg xmlns="http://www.w3.org/2000/svg" version="1.1" width="500px" height="500px" style="shape-rendering:geometricPrecision; text-rendering:geometricPrecision; image-rendering:optimizeQuality; fill-rule:evenodd; clip-rule:evenodd" xmlns:xlink="http://www.w3.org/1999/xlink">
<g><path style="opacity:1" fill="#232323" d="M 233.5,-0.5 C 243.167,-0.5 252.833,-0.5 262.5,-0.5C 361.136,8.5498 432.636,57.2165 477,145.5C 489.014,173.102 496.514,201.769 499.5,231.5C 499.5,241.833 499.5,252.167 499.5,262.5C 492.044,351.62 450.377,419.453 374.5,466C 365.833,470.333 357.167,474.667 348.5,479C 342.375,481.875 336.042,484.041 329.5,485.5C 412.988,449.814 460.821,386.814 473,296.5C 478.526,222.055 454.359,159.222 400.5,108C 339.85,56.505 270.517,39.505 192.5,57C 111.937,81.2297 58.7702,133.396 33,213.5C 12.4561,299.832 32.9561,374.665 94.5,438C 113.493,455.162 134.493,469.328 157.5,480.5C 156.5,480.5 155.5,480.5 154.5,480.5C 78.4686,447.292 29.302,390.625 7,310.5C 5.44098,302.146 3.77431,293.813 2,285.5C 1.38812,277.326 0.554791,269.326 -0.5,261.5C -0.5,250.833 -0.5,240.167 -0.5,229.5C 3.44154,191.506 14.9415,155.839 34,122.5C 80.1477,48.8271 146.648,7.82711 233.5,-0.5 Z"/></g>
<g><path style="opacity:1" fill="#fefefe" d="M 262.5,-0.5 C 341.5,-0.5 420.5,-0.5 499.5,-0.5C 499.5,76.8333 499.5,154.167 499.5,231.5C 496.514,201.769 489.014,173.102 477,145.5C 432.636,57.2165 361.136,8.5498 262.5,-0.5 Z"/></g>
<g><path style="opacity:1" fill="#fcfcfc" d="M 329.5,485.5 C 327.309,486.291 325.309,486.291 323.5,485.5C 381.148,462.018 420.648,421.018 442,362.5C 464.942,290.472 453.275,224.805 407,165.5C 354.184,106.334 288.35,82.8336 209.5,95C 130.457,114.042 78.2908,162.209 53,239.5C 33.9271,320.071 53.7604,389.238 112.5,447C 129.872,462.19 149.205,474.356 170.5,483.5C 170.5,484.167 170.167,484.5 169.5,484.5C 165.49,483.16 161.49,481.826 157.5,480.5C 134.493,469.328 113.493,455.162 94.5,438C 32.9561,374.665 12.4561,299.832 33,213.5C 58.7702,133.396 111.937,81.2297 192.5,57C 270.517,39.505 339.85,56.505 400.5,108C 454.359,159.222 478.526,222.055 473,296.5C 460.821,386.814 412.988,449.814 329.5,485.5 Z"/></g>
<g><path style="opacity:1" fill="#232323" d="M 323.5,485.5 C 308.774,490.93 293.774,494.93 278.5,497.5C 272.366,498.086 266.366,498.752 260.5,499.5C 250.167,499.5 239.833,499.5 229.5,499.5C 226.026,498.475 222.36,497.808 218.5,497.5C 208.135,495.325 197.802,492.658 187.5,489.5C 181.677,487.893 176.011,485.893 170.5,483.5C 149.205,474.356 129.872,462.19 112.5,447C 53.7604,389.238 33.9271,320.071 53,239.5C 78.2908,162.209 130.457,114.042 209.5,95C 288.35,82.8336 354.184,106.334 407,165.5C 453.275,224.805 464.942,290.472 442,362.5C 420.648,421.018 381.148,462.018 323.5,485.5 Z"/></g>
<g><path style="opacity:1" fill="#fdfdfd" d="M 239.5,143.5 C 318.605,143.449 375.438,178.782 410,249.5C 433.866,313.435 425.533,372.768 385,427.5C 344.352,474.399 292.852,495.566 230.5,491C 156.801,479.629 107.635,438.796 83,368.5C 64.2435,296.456 82.0769,235.29 136.5,185C 166.386,160.094 200.719,146.261 239.5,143.5 Z"/></g>
<g><path style="opacity:1" fill="#222222" d="M 237.5,225.5 C 285.414,223.638 318.581,244.638 337,288.5C 347.54,325.508 339.373,357.674 312.5,385C 283.379,409.756 250.712,415.756 214.5,403C 168.39,379.608 150.557,342.442 161,291.5C 173.992,255.009 199.492,233.009 237.5,225.5 Z"/></g>
<g><path style="opacity:1" fill="#fefefe" d="M 499.5,262.5 C 499.5,341.5 499.5,420.5 499.5,499.5C 419.833,499.5 340.167,499.5 260.5,499.5C 266.366,498.752 272.366,498.086 278.5,497.5C 296.31,496.463 313.31,492.463 329.5,485.5C 336.042,484.041 342.375,481.875 348.5,479C 357.167,474.667 365.833,470.333 374.5,466C 450.377,419.453 492.044,351.62 499.5,262.5 Z"/></g>
<g><path style="opacity:1" fill="#fefefe" d="M -0.5,261.5 C 0.554791,269.326 1.38812,277.326 2,285.5C 3.77431,293.813 5.44098,302.146 7,310.5C 29.302,390.625 78.4686,447.292 154.5,480.5C 162.804,484.269 171.471,487.269 180.5,489.5C 182.028,490.309 183.694,490.976 185.5,491.5C 196.317,494.47 207.317,496.47 218.5,497.5C 222.36,497.808 226.026,498.475 229.5,499.5C 152.833,499.5 76.1667,499.5 -0.5,499.5C -0.5,420.167 -0.5,340.833 -0.5,261.5 Z"/></g>
<g><path style="opacity:1" fill="#464646" d="M 154.5,480.5 C 155.5,480.5 156.5,480.5 157.5,480.5C 161.49,481.826 165.49,483.16 169.5,484.5C 173.792,486.092 177.459,487.759 180.5,489.5C 171.471,487.269 162.804,484.269 154.5,480.5 Z"/></g>
<g><path style="opacity:1" fill="#c6c6c6" d="M 170.5,483.5 C 176.011,485.893 181.677,487.893 187.5,489.5C 186.833,490.167 186.167,490.833 185.5,491.5C 183.694,490.976 182.028,490.309 180.5,489.5C 177.459,487.759 173.792,486.092 169.5,484.5C 170.167,484.5 170.5,484.167 170.5,483.5 Z"/></g>
<g><path style="opacity:1" fill="#909090" d="M 323.5,485.5 C 325.309,486.291 327.309,486.291 329.5,485.5C 313.31,492.463 296.31,496.463 278.5,497.5C 293.774,494.93 308.774,490.93 323.5,485.5 Z"/></g>
<g><path style="opacity:1" fill="#979797" d="M 187.5,489.5 C 197.802,492.658 208.135,495.325 218.5,497.5C 207.317,496.47 196.317,494.47 185.5,491.5C 186.167,490.833 186.833,490.167 187.5,489.5 Z"/></g>
</svg>
