<?xml version="1.0" standalone="no"?>
<!DOCTYPE svg PUBLIC "-//W3C//DTD SVG 20010904//EN"
 "http://www.w3.org/TR/2001/REC-SVG-20010904/DTD/svg10.dtd">
<svg version="1.0" xmlns="http://www.w3.org/2000/svg"
 width="300.000000pt" height="300.000000pt" viewBox="0 0 300.000000 300.000000"
 preserveAspectRatio="xMidYMid meet">
<metadata>
Created by potrace 1.10, written by Peter Selinger 2001-2011
</metadata>
<g transform="translate(0.000000,300.000000) scale(0.100000,-0.100000)"
fill="#fff" stroke="#fff" stroke-width="30">
<path d="M1335 2441 c-149 -41 -246 -100 -349 -213 -117 -128 -176 -282 -176
-460 0 -143 48 -302 118 -388 l20 -24 -201 -401 c-111 -220 -203 -403 -205
-407 -2 -5 3 -8 11 -8 9 0 67 103 151 269 l136 269 325 1 326 1 -1 -268 c-1
-235 1 -267 14 -270 14 -3 16 27 16 267 l0 271 321 -2 321 -3 134 -265 c82
-164 140 -266 150 -268 9 -2 15 0 13 5 -3 4 -95 188 -205 408 l-201 400 39 59
c88 137 121 349 79 515 -58 233 -225 416 -450 494 -114 40 -277 48 -386 18z
m66 -198 c-54 -104 -173 -338 -267 -520 -93 -183 -172 -333 -176 -333 -15 0
-88 164 -103 236 -22 98 -16 251 14 344 81 254 334 449 597 459 l31 1 -96
-187z m305 152 c261 -87 437 -319 451 -595 6 -122 -13 -218 -67 -327 -23 -46
-44 -83 -48 -83 -5 0 -512 986 -531 1033 -6 16 117 -2 195 -28z m-216 -670 l0
-615 -40 0 c-122 0 -293 75 -400 177 l-70 66 144 281 c79 154 192 377 252 494
59 116 109 212 111 212 2 0 3 -277 3 -615z m127 427 c51 -103 163 -324 248
-492 l155 -305 -69 -66 c-103 -98 -222 -154 -373 -177 l-58 -9 0 596 c0 328
-3 606 -6 619 -17 61 20 2 103 -166z m523 -1040 c0 -4 -97 -7 -215 -7 -117 0
-211 3 -207 6 4 3 28 13 54 23 65 24 155 84 214 143 l49 49 53 -103 c28 -57
52 -106 52 -111z m-1120 161 c53 -55 143 -115 208 -139 26 -10 50 -20 54 -23
4 -3 -90 -6 -207 -6 -118 0 -215 2 -215 5 -1 9 105 210 110 210 3 0 25 -21 50
-47z"/>
</g>
</svg>
